<svg width="100%" viewBox="0 0 680 296" role="img" xmlns="http://www.w3.org/2000/svg" font-family="'Segoe UI', Helvetica, Arial, sans-serif">
<title>Detection-to-warning state machine</title>
<desc>A cyclic state machine: idle, tracking, confirmed, warn-on, warn-hold, and clearing form the closed loop that turns the warning sign on after a dwell time and off after a hold time. A central safe state is reachable from any state on a critical fault and returns to idle after a self-test passes. Blue states are normal monitoring, amber states mean the warning is shown, red is the fault safe state.</desc>
<defs>
<marker id="arrow" viewBox="0 0 10 10" refX="8" refY="5" markerWidth="6" markerHeight="6" orient="auto-start-reverse"><path d="M2 1L8 5L2 9" fill="none" stroke="context-stroke" stroke-width="1.5" stroke-linecap="round" stroke-linejoin="round"/></marker>
</defs>
<rect x="0" y="0" width="680" height="296" fill="#FBFBF9"/>

<path d="M300 64 C 268 40 172 40 140 64" fill="none" stroke="#888780" stroke-width="1" marker-end="url(#arrow)"/>
<text x="220" y="40" font-size="12" fill="#5F5E5A" text-anchor="middle">leaves before dwell</text>

<line x1="180" y1="82" x2="280" y2="82" stroke="#5F5E5A" stroke-width="1.5" marker-end="url(#arrow)"/>
<text x="230" y="77" font-size="12" fill="#5F5E5A" text-anchor="middle">enters ROI</text>
<line x1="400" y1="82" x2="500" y2="82" stroke="#5F5E5A" stroke-width="1.5" marker-end="url(#arrow)"/>
<text x="450" y="77" font-size="12" fill="#5F5E5A" text-anchor="middle">dwell ≥ 5 s</text>

<line x1="560" y1="110" x2="560" y2="176" stroke="#5F5E5A" stroke-width="1.5" marker-end="url(#arrow)"/>
<text x="568" y="146" font-size="12" fill="#5F5E5A" text-anchor="start">show ≤ 2 s</text>

<line x1="500" y1="192" x2="400" y2="192" stroke="#5F5E5A" stroke-width="1.5" marker-end="url(#arrow)"/>
<text x="450" y="187" font-size="12" fill="#5F5E5A" text-anchor="middle">not seen</text>
<line x1="400" y1="208" x2="500" y2="208" stroke="#5F5E5A" stroke-width="1.5" marker-end="url(#arrow)"/>
<text x="450" y="221" font-size="12" fill="#5F5E5A" text-anchor="middle">re-seen</text>

<line x1="280" y1="199" x2="180" y2="199" stroke="#5F5E5A" stroke-width="1.5" marker-end="url(#arrow)"/>
<text x="230" y="194" font-size="12" fill="#5F5E5A" text-anchor="middle">absent ≥ 10 s</text>

<line x1="120" y1="176" x2="120" y2="110" stroke="#5F5E5A" stroke-width="1.5" marker-end="url(#arrow)"/>
<text x="128" y="146" font-size="12" fill="#5F5E5A" text-anchor="start">clear + sign off</text>

<path d="M540 222 C 540 246 582 246 582 222" fill="none" stroke="#5F5E5A" stroke-width="1.5" marker-end="url(#arrow)"/>
<text x="561" y="256" font-size="12" fill="#5F5E5A" text-anchor="middle">watchdog re-confirm</text>

<line x1="512" y1="112" x2="424" y2="130" stroke="#A32D2D" stroke-width="1" stroke-dasharray="4 3" marker-end="url(#arrow)"/>
<line x1="512" y1="176" x2="424" y2="154" stroke="#A32D2D" stroke-width="1" stroke-dasharray="4 3" marker-end="url(#arrow)"/>

<line x1="250" y1="134" x2="182" y2="104" stroke="#5F5E5A" stroke-width="1.5" marker-end="url(#arrow)"/>
<text x="232" y="120" font-size="12" fill="#5F5E5A" text-anchor="end">recovered</text>

<rect x="60" y="64" width="120" height="46" rx="6" fill="#E6F1FB" stroke="#185FA5" stroke-width="0.8"/>
<text x="120" y="84" font-size="14" font-weight="500" fill="#0C447C" text-anchor="middle">Idle</text>
<text x="120" y="100" font-size="12" fill="#185FA5" text-anchor="middle">watching ROI</text>

<rect x="280" y="64" width="120" height="46" rx="6" fill="#E6F1FB" stroke="#185FA5" stroke-width="0.8"/>
<text x="340" y="84" font-size="14" font-weight="500" fill="#0C447C" text-anchor="middle">Tracking</text>
<text x="340" y="100" font-size="12" fill="#185FA5" text-anchor="middle">vehicle in ROI</text>

<rect x="500" y="64" width="120" height="46" rx="6" fill="#E6F1FB" stroke="#185FA5" stroke-width="0.8"/>
<text x="560" y="84" font-size="14" font-weight="500" fill="#0C447C" text-anchor="middle">Confirmed</text>
<text x="560" y="100" font-size="12" fill="#185FA5" text-anchor="middle">stop confirmed</text>

<rect x="60" y="176" width="120" height="46" rx="6" fill="#E6F1FB" stroke="#185FA5" stroke-width="0.8"/>
<text x="120" y="196" font-size="14" font-weight="500" fill="#0C447C" text-anchor="middle">Clearing</text>
<text x="120" y="212" font-size="12" fill="#185FA5" text-anchor="middle">sign off</text>

<rect x="280" y="176" width="120" height="46" rx="6" fill="#FAEEDA" stroke="#854F0B" stroke-width="0.8"/>
<text x="340" y="196" font-size="14" font-weight="500" fill="#633806" text-anchor="middle">Warn hold</text>
<text x="340" y="212" font-size="12" fill="#854F0B" text-anchor="middle">occlusion hold</text>

<rect x="500" y="176" width="120" height="46" rx="6" fill="#FAEEDA" stroke="#854F0B" stroke-width="0.8"/>
<text x="560" y="196" font-size="14" font-weight="500" fill="#633806" text-anchor="middle">Warn on</text>
<text x="560" y="212" font-size="12" fill="#854F0B" text-anchor="middle">sign shown</text>

<rect x="250" y="120" width="180" height="44" rx="6" fill="#FCEBEB" stroke="#A32D2D" stroke-width="0.8" stroke-dasharray="5 4"/>
<text x="340" y="140" font-size="14" font-weight="500" fill="#791F1F" text-anchor="middle">Safe state</text>
<text x="340" y="156" font-size="12" fill="#A32D2D" text-anchor="middle">sign blank · alert ops</text>

<rect x="60" y="276" width="13" height="13" rx="3" fill="#E6F1FB" stroke="#185FA5" stroke-width="0.8"/>
<text x="80" y="286" font-size="12" fill="#5F5E5A">monitoring</text>
<rect x="180" y="276" width="13" height="13" rx="3" fill="#FAEEDA" stroke="#854F0B" stroke-width="0.8"/>
<text x="200" y="286" font-size="12" fill="#5F5E5A">warning shown</text>
<rect x="330" y="276" width="13" height="13" rx="3" fill="#FCEBEB" stroke="#A32D2D" stroke-width="0.8"/>
<text x="350" y="286" font-size="12" fill="#5F5E5A">fault / safe state</text>
<text x="490" y="286" font-size="12" fill="#A32D2D">- - - fault, from any state</text>
</svg>
