<svg width="100%" viewBox="0 0 760 360" role="img" xmlns="http://www.w3.org/2000/svg" font-family="'Segoe UI', Helvetica, Arial, sans-serif">
<title>Máy trạng thái phát hiện — cảnh báo (theo tập hợp vết, có giữ khi che khuất và an toàn khi sự cố)</title>
<desc>Máy trạng thái vận hành trên tập hợp các vết đang dừng đã xác nhận trong ROI. Chờ dẫn tới theo dõi, rồi xác nhận, rồi bật cảnh báo. Từ trạng thái bật cảnh báo, một lần thoát ra đã xác nhận sẽ tắt bảng nhanh, trong khi một vết bị mất mà không thấy thoát ra sẽ chuyển sang giữ cảnh báo và được giữ chừng nào radar còn đối chứng sự hiện diện, rồi mới hủy khi thực sự thoát ra hoặc hết thời gian chờ mà không có đối chứng. Bộ giám sát (watchdog) hủy cảnh báo và phát lỗi khi không kênh nào xác nhận được. Trạng thái an toàn làm trống bảng và báo trực ban, có thể đến từ mọi trạng thái khi có lỗi nghiêm trọng và được bộ giám sát tình trạng độc lập buộc kích hoạt; trở về chờ sau khi tự kiểm đạt. Xanh dương là giám sát thường, hổ phách là đang cảnh báo, đỏ là trạng thái an toàn khi lỗi.</desc>
<defs>
<marker id="arrow" viewBox="0 0 10 10" refX="8" refY="5" markerWidth="6" markerHeight="6" orient="auto-start-reverse"><path d="M2 1L8 5L2 9" fill="none" stroke="context-stroke" stroke-width="1.5" stroke-linecap="round" stroke-linejoin="round"/></marker>
</defs>
<rect x="0" y="0" width="760" height="360" fill="#FBFBF9"/>

<rect x="20" y="8" width="720" height="36" rx="6" fill="#F2F1EC" stroke="#D9D8D2" stroke-width="0.8"/>
<text x="380" y="25" font-size="11" fill="#5F5E5A" text-anchor="middle">Vận hành trên TẬP HỢP các vết đang dừng đã xác nhận trong ROI — cảnh báo vẫn BẬT khi tập hợp chưa rỗng.</text>
<text x="380" y="39" font-size="11" fill="#5F5E5A" text-anchor="middle">Nhiều xe có thể dừng, rời đi và đến một cách độc lập; xe đã hiện diện sẵn lúc khởi động được coi là một vết mới.</text>

<path d="M304 80 C 268 58 194 58 158 80" fill="none" stroke="#888780" stroke-width="1" marker-end="url(#arrow)"/>
<text x="231" y="52" font-size="12" fill="#5F5E5A" text-anchor="middle">rời đi / mất trước hạn chờ</text>

<line x1="162" y1="103" x2="298" y2="103" stroke="#5F5E5A" stroke-width="1.5" marker-end="url(#arrow)"/>
<text x="230" y="97" font-size="12" fill="#5F5E5A" text-anchor="middle">vết vào ROI</text>
<line x1="422" y1="103" x2="558" y2="103" stroke="#5F5E5A" stroke-width="1.5" marker-end="url(#arrow)"/>
<text x="490" y="97" font-size="12" fill="#5F5E5A" text-anchor="middle">đứng yên ≥ 5 s</text>

<line x1="620" y1="126" x2="620" y2="220" stroke="#5F5E5A" stroke-width="1.5" marker-end="url(#arrow)"/>
<text x="628" y="176" font-size="12" fill="#5F5E5A" text-anchor="start">khẳng định BẬT ≤ 2 s</text>

<line x1="558" y1="236" x2="422" y2="236" stroke="#5F5E5A" stroke-width="1.5" marker-end="url(#arrow)"/>
<text x="490" y="230" font-size="12" fill="#5F5E5A" text-anchor="middle">mất dấu, không thoát?</text>
<line x1="422" y1="252" x2="558" y2="252" stroke="#5F5E5A" stroke-width="1.5" marker-end="url(#arrow)"/>
<text x="490" y="266" font-size="12" fill="#5F5E5A" text-anchor="middle">thấy lại · radar giữ</text>

<line x1="298" y1="243" x2="162" y2="243" stroke="#5F5E5A" stroke-width="1.5" marker-end="url(#arrow)"/>
<text x="230" y="237" font-size="12" fill="#5F5E5A" text-anchor="middle">thoát · hoặc vắng 10 s</text>

<line x1="100" y1="220" x2="100" y2="126" stroke="#5F5E5A" stroke-width="1.5" marker-end="url(#arrow)"/>
<text x="92" y="176" font-size="12" fill="#5F5E5A" text-anchor="end">hủy + tắt bảng</text>

<path d="M680 232 C 716 228 716 252 680 248" fill="none" stroke="#5F5E5A" stroke-width="1.5" marker-end="url(#arrow)"/>
<text x="700" y="240" font-size="11" fill="#5F5E5A" text-anchor="start">còn vết</text>

<path d="M600 268 C 480 300 240 300 120 268" fill="none" stroke="#5F5E5A" stroke-width="1.5" marker-end="url(#arrow)"/>
<text x="360" y="312" font-size="12" fill="#5F5E5A" text-anchor="middle">thoát đã xác nhận → hủy nhanh</text>

<line x1="360" y1="126" x2="360" y2="136" stroke="#A32D2D" stroke-width="1" stroke-dasharray="4 3" marker-end="url(#arrow)"/>
<line x1="360" y1="220" x2="360" y2="186" stroke="#A32D2D" stroke-width="1" stroke-dasharray="4 3" marker-end="url(#arrow)"/>
<line x1="566" y1="126" x2="452" y2="148" stroke="#A32D2D" stroke-width="1" stroke-dasharray="4 3" marker-end="url(#arrow)"/>
<line x1="575" y1="220" x2="452" y2="168" stroke="#A32D2D" stroke-width="1" stroke-dasharray="4 3" marker-end="url(#arrow)"/>
<text x="512" y="192" font-size="11" fill="#A32D2D" text-anchor="middle">watchdog</text>

<path d="M268 152 C 222 144 196 132 162 120" fill="none" stroke="#5F5E5A" stroke-width="1.5" marker-end="url(#arrow)"/>
<text x="214" y="150" font-size="12" fill="#5F5E5A" text-anchor="middle">tự kiểm đạt</text>

<rect x="40" y="80" width="120" height="46" rx="6" fill="#E6F1FB" stroke="#185FA5" stroke-width="0.8"/>
<text x="100" y="100" font-size="14" font-weight="500" fill="#0C447C" text-anchor="middle">Chờ</text>
<text x="100" y="116" font-size="12" fill="#185FA5" text-anchor="middle">giám sát ROI</text>

<rect x="300" y="80" width="120" height="46" rx="6" fill="#E6F1FB" stroke="#185FA5" stroke-width="0.8"/>
<text x="360" y="100" font-size="14" font-weight="500" fill="#0C447C" text-anchor="middle">Theo dõi</text>
<text x="360" y="116" font-size="12" fill="#185FA5" text-anchor="middle">có vết trong ROI</text>

<rect x="560" y="80" width="120" height="46" rx="6" fill="#E6F1FB" stroke="#185FA5" stroke-width="0.8"/>
<text x="620" y="100" font-size="14" font-weight="500" fill="#0C447C" text-anchor="middle">Xác nhận</text>
<text x="620" y="116" font-size="12" fill="#185FA5" text-anchor="middle">đã dừng</text>

<rect x="40" y="220" width="120" height="46" rx="6" fill="#E6F1FB" stroke="#185FA5" stroke-width="0.8"/>
<text x="100" y="240" font-size="14" font-weight="500" fill="#0C447C" text-anchor="middle">Đang hủy</text>
<text x="100" y="256" font-size="12" fill="#185FA5" text-anchor="middle">tắt bảng</text>

<rect x="300" y="220" width="120" height="46" rx="6" fill="#FAEEDA" stroke="#854F0B" stroke-width="0.8"/>
<text x="360" y="240" font-size="14" font-weight="500" fill="#633806" text-anchor="middle">Giữ cảnh báo</text>
<text x="360" y="256" font-size="12" fill="#854F0B" text-anchor="middle">bị che · radar giữ</text>

<rect x="560" y="220" width="120" height="46" rx="6" fill="#FAEEDA" stroke="#854F0B" stroke-width="0.8"/>
<text x="620" y="240" font-size="14" font-weight="500" fill="#633806" text-anchor="middle">Bật cảnh báo</text>
<text x="620" y="256" font-size="12" fill="#854F0B" text-anchor="middle">đang hiển thị</text>

<rect x="270" y="138" width="180" height="46" rx="6" fill="#FCEBEB" stroke="#A32D2D" stroke-width="0.8" stroke-dasharray="5 4"/>
<text x="360" y="158" font-size="14" font-weight="500" fill="#791F1F" text-anchor="middle">Trạng thái an toàn</text>
<text x="360" y="174" font-size="12" fill="#A32D2D" text-anchor="middle">bảng trống · báo trực</text>

<rect x="40" y="332" width="13" height="13" rx="3" fill="#E6F1FB" stroke="#185FA5" stroke-width="0.8"/>
<text x="60" y="342" font-size="12" fill="#5F5E5A">giám sát</text>
<rect x="180" y="332" width="13" height="13" rx="3" fill="#FAEEDA" stroke="#854F0B" stroke-width="0.8"/>
<text x="200" y="342" font-size="12" fill="#5F5E5A">đang cảnh báo</text>
<rect x="340" y="332" width="13" height="13" rx="3" fill="#FCEBEB" stroke="#A32D2D" stroke-width="0.8"/>
<text x="360" y="342" font-size="12" fill="#5F5E5A">lỗi / an toàn</text>
<text x="500" y="342" font-size="12" fill="#A32D2D">– – – lỗi · mọi trạng thái</text>
</svg>
