<svg width="100%" viewBox="0 0 760 392" role="img" xmlns="http://www.w3.org/2000/svg" font-family="'Segoe UI', Helvetica, Arial, sans-serif">
<title>Detection-to-warning state machine (set-based, with radar-held occlusion and fail-safe)</title>
<desc>A state machine over the set of confirmed-stopped tracks in the ROI. Idle leads to tracking then confirmed then warn-on. From warn-on a confirmed exit clears the sign fast, while a track lost without an observed exit goes to warn-hold and is held as long as radar still corroborates its presence, then clears on a real exit or a no-corroboration timeout. A watchdog clears the warning and raises a fault when no channel can confirm. A safe state, which blanks the sign and alerts operators, is reachable from any state on a critical fault and can be forced by the independent health monitor; it returns to idle after a self-test passes. Blue states are normal monitoring, amber states mean the warning is shown, red is the fault safe state.</desc>
<defs>
<marker id="arrow" viewBox="0 0 10 10" refX="8" refY="5" markerWidth="6" markerHeight="6" orient="auto-start-reverse"><path d="M2 1L8 5L2 9" fill="none" stroke="context-stroke" stroke-width="1.5" stroke-linecap="round" stroke-linejoin="round"/></marker>
</defs>
<rect x="0" y="0" width="760" height="392" fill="#FBFBF9"/>

<rect x="20" y="8" width="720" height="36" rx="6" fill="#F2F1EC" stroke="#D9D8D2" stroke-width="0.8"/>
<text x="380" y="25" font-size="11" fill="#5F5E5A" text-anchor="middle">Operates over the SET of confirmed-stopped tracks in the ROI — the warning stays ON while that set is non-empty.</text>
<text x="380" y="39" font-size="11" fill="#5F5E5A" text-anchor="middle">Several vehicles may stop, depart and arrive independently; a vehicle already present at startup is treated as a new track.</text>

<path d="M304 80 C 268 58 194 58 158 80" fill="none" stroke="#888780" stroke-width="1" marker-end="url(#arrow)"/>
<text x="231" y="52" font-size="12" fill="#5F5E5A" text-anchor="middle">leaves / lost before dwell</text>

<line x1="162" y1="103" x2="298" y2="103" stroke="#5F5E5A" stroke-width="1.5" marker-end="url(#arrow)"/>
<text x="230" y="97" font-size="12" fill="#5F5E5A" text-anchor="middle">track enters ROI</text>
<line x1="422" y1="103" x2="558" y2="103" stroke="#5F5E5A" stroke-width="1.5" marker-end="url(#arrow)"/>
<text x="490" y="97" font-size="12" fill="#5F5E5A" text-anchor="middle">stationary ≥ 5 s</text>

<line x1="620" y1="126" x2="620" y2="220" stroke="#5F5E5A" stroke-width="1.5" marker-end="url(#arrow)"/>
<text x="628" y="176" font-size="12" fill="#5F5E5A" text-anchor="start">assert SHOW ≤ 2 s</text>

<line x1="558" y1="236" x2="422" y2="236" stroke="#5F5E5A" stroke-width="1.5" marker-end="url(#arrow)"/>
<text x="490" y="230" font-size="12" fill="#5F5E5A" text-anchor="middle">lost, no exit?</text>
<line x1="422" y1="252" x2="558" y2="252" stroke="#5F5E5A" stroke-width="1.5" marker-end="url(#arrow)"/>
<text x="490" y="266" font-size="12" fill="#5F5E5A" text-anchor="middle">re-seen · radar holds</text>

<line x1="298" y1="243" x2="162" y2="243" stroke="#5F5E5A" stroke-width="1.5" marker-end="url(#arrow)"/>
<text x="230" y="237" font-size="12" fill="#5F5E5A" text-anchor="middle">exit · or 10 s no-radar clear</text>

<line x1="100" y1="220" x2="100" y2="126" stroke="#5F5E5A" stroke-width="1.5" marker-end="url(#arrow)"/>
<text x="92" y="176" font-size="12" fill="#5F5E5A" text-anchor="end">clear + sign off</text>

<path d="M680 232 C 716 228 716 252 680 248" fill="none" stroke="#5F5E5A" stroke-width="1.5" marker-end="url(#arrow)"/>
<text x="700" y="234" font-size="11" fill="#5F5E5A" text-anchor="start">tracks</text>
<text x="700" y="247" font-size="11" fill="#5F5E5A" text-anchor="start">present</text>

<path d="M600 268 C 480 300 240 300 120 268" fill="none" stroke="#5F5E5A" stroke-width="1.5" marker-end="url(#arrow)"/>
<text x="360" y="312" font-size="12" fill="#5F5E5A" text-anchor="middle">confirmed exit → fast clear</text>

<line x1="360" y1="126" x2="360" y2="136" stroke="#A32D2D" stroke-width="1" stroke-dasharray="4 3" marker-end="url(#arrow)"/>
<line x1="360" y1="220" x2="360" y2="186" stroke="#A32D2D" stroke-width="1" stroke-dasharray="4 3" marker-end="url(#arrow)"/>
<line x1="566" y1="126" x2="452" y2="148" stroke="#A32D2D" stroke-width="1" stroke-dasharray="4 3" marker-end="url(#arrow)"/>
<line x1="575" y1="220" x2="452" y2="168" stroke="#A32D2D" stroke-width="1" stroke-dasharray="4 3" marker-end="url(#arrow)"/>
<text x="512" y="192" font-size="11" fill="#A32D2D" text-anchor="middle">watchdog</text>

<path d="M268 152 C 222 144 196 132 162 120" fill="none" stroke="#5F5E5A" stroke-width="1.5" marker-end="url(#arrow)"/>
<text x="214" y="150" font-size="12" fill="#5F5E5A" text-anchor="middle">self-test pass</text>

<rect x="40" y="80" width="120" height="46" rx="6" fill="#E6F1FB" stroke="#185FA5" stroke-width="0.8"/>
<text x="100" y="100" font-size="14" font-weight="500" fill="#0C447C" text-anchor="middle">Idle</text>
<text x="100" y="116" font-size="12" fill="#185FA5" text-anchor="middle">watching ROI</text>

<rect x="300" y="80" width="120" height="46" rx="6" fill="#E6F1FB" stroke="#185FA5" stroke-width="0.8"/>
<text x="360" y="100" font-size="14" font-weight="500" fill="#0C447C" text-anchor="middle">Tracking</text>
<text x="360" y="116" font-size="12" fill="#185FA5" text-anchor="middle">track in ROI</text>

<rect x="560" y="80" width="120" height="46" rx="6" fill="#E6F1FB" stroke="#185FA5" stroke-width="0.8"/>
<text x="620" y="100" font-size="14" font-weight="500" fill="#0C447C" text-anchor="middle">Confirmed</text>
<text x="620" y="116" font-size="12" fill="#185FA5" text-anchor="middle">stop confirmed</text>

<rect x="40" y="220" width="120" height="46" rx="6" fill="#E6F1FB" stroke="#185FA5" stroke-width="0.8"/>
<text x="100" y="240" font-size="14" font-weight="500" fill="#0C447C" text-anchor="middle">Clearing</text>
<text x="100" y="256" font-size="12" fill="#185FA5" text-anchor="middle">sign off</text>

<rect x="300" y="220" width="120" height="46" rx="6" fill="#FAEEDA" stroke="#854F0B" stroke-width="0.8"/>
<text x="360" y="240" font-size="14" font-weight="500" fill="#633806" text-anchor="middle">Warn hold</text>
<text x="360" y="256" font-size="12" fill="#854F0B" text-anchor="middle">occluded · radar holds</text>

<rect x="560" y="220" width="120" height="46" rx="6" fill="#FAEEDA" stroke="#854F0B" stroke-width="0.8"/>
<text x="620" y="240" font-size="14" font-weight="500" fill="#633806" text-anchor="middle">Warn on</text>
<text x="620" y="256" font-size="12" fill="#854F0B" text-anchor="middle">sign shown</text>

<rect x="270" y="138" width="180" height="46" rx="6" fill="#FCEBEB" stroke="#A32D2D" stroke-width="0.8" stroke-dasharray="5 4"/>
<text x="360" y="158" font-size="14" font-weight="500" fill="#791F1F" text-anchor="middle">Safe state</text>
<text x="360" y="174" font-size="12" fill="#A32D2D" text-anchor="middle">sign blank · alert ops</text>

<rect x="40" y="332" width="13" height="13" rx="3" fill="#E6F1FB" stroke="#185FA5" stroke-width="0.8"/>
<text x="60" y="342" font-size="12" fill="#5F5E5A">monitoring</text>
<rect x="180" y="332" width="13" height="13" rx="3" fill="#FAEEDA" stroke="#854F0B" stroke-width="0.8"/>
<text x="200" y="342" font-size="12" fill="#5F5E5A">warning shown</text>
<rect x="340" y="332" width="13" height="13" rx="3" fill="#FCEBEB" stroke="#A32D2D" stroke-width="0.8"/>
<text x="360" y="342" font-size="12" fill="#5F5E5A">fault / safe state</text>
<text x="500" y="342" font-size="12" fill="#A32D2D">– – – fault, from any state</text>
<line x1="20" y1="358" x2="740" y2="358" stroke="#E2E1DB" stroke-width="1"/>
<text x="20" y="374" font-size="10.5" fill="#5F5E5A">Occluded &gt; T_occlusion but radar still confirms → warning stays ON + alerts ops (degraded) — never a silent clear.</text>
<text x="20" y="387" font-size="10.5" fill="#5F5E5A">The dead-man's switch lives in the sign controller, so a dead edge box or a cut link also blanks the sign.</text>
</svg>
